/* XPM */
static char *b4cbd05568fb4ad0b82fd423b623d1fccgX7SPXpi7yop8DC[] = {
/* columns rows colors chars-per-pixel */
"128 128 3 1 ",
"  c white",
". c white",
"o c black",
/* pixels */
"                                                                                                                                ",
"                                                                                                                                ",
"                                                                                                                                ",
"                                                                                                                                ",
"                                                                                                                                ",
"                                                                                                                                ",
"                                                                                                                                ",
"                                                                                                                                ",
"                                                                                                                                ",
"                                                                                                                                ",
"                                                                                                                                ",
"                                                                                                                                ",
"                                                                                                                                ",
"                                                                                                                                ",
"                                                             ......                                                             ",
"                                                           ..oooooo..                                                           ",
"                                                          .oooooooooo.                                                          ",
"                                                         .oooooooooooo.                                                         ",
"                                                         .oooooooooooo.                                                         ",
"                                                        .oooooooooooooo.                                                        ",
"                                                       .oooooooooooooooo.                                                       ",
"                                                       .oooooooooooooooo.                                                       ",
"                                                       .oooooooooooooooo.                                                       ",
"                                                       .oooooooooooooooo.                                                       ",
"                                                       .oooooooooooooooo.                                                       ",
"                                                       .oooooooooooooooo.                                                       ",
"                                                       .oooooooooooooooo.                                                       ",
"                                                       .oooooooooooooooo.                                                       ",
"                                                       .oooooooooooooooo.                                                       ",
"                                                        .oooooooooooooo.                                                        ",
"                                                        .oooooooooooooo.                                                        ",
"                                                         .oooooooooooo.                                                         ",
"                                                          .oooooooooo.                                                          ",
"                                                           .oooooooo.                                                           ",
"                                                           .oooooooo.                                                           ",
"                                                        ...oooooooooo...                                                        ",
"                                                      ..oooooooooooooooo..                                                      ",
"                                                    ..oooooooooooooooooooo.                                                     ",
"                                                   .oooooooooooooooooooooo.                                                     ",
"                                                  .oooooooooooooooooooooooo.                                                    ",
"                                                 .oooooooooooooooooooooooooo.                                                   ",
"                                                .oooooooooooooooooooooooooooo.                                                  ",
"                                               .oooooooooooooooooooooooooooooo.                                                 ",
"                                               .oooooooooooooooooooooooooooooo.                                                 ",
"                                              .oooooooooooooooooooooooooooooooo.                                                ",
"                                              .oooooooooooooooooooooooooooooooo.                                                ",
"                                             .oooooooooooooooooooooooooooooooooo.                                               ",
"                                             .oooooooooooooooooooooooooooooooooo.                                               ",
"                                             .oooooooooooooooooooooooooooooooooo.                                               ",
"                                            .oooooooooooooooooooooooooooooooooooo.                                              ",
"                                            .oooooooooooooooooooooooooooooooooooo.                                              ",
"                                            .oooooooooooooooooooooooooooooooooooo.                                              ",
"                                            .oooooooooooooooooooooooooooooooooooo.                                              ",
"                                            .oooooooooooooooooooooooooooooooooooo.                                              ",
"                                            .oooooooooooooooooooooooooooooooooooo.                                              ",
"                                            .oooooooooooooooooooooooooooooooooooo.                                              ",
"                                             .oooooooooooooooooooooooooooooooooo.                                               ",
"                                             .oooooooooooooooooooooooooooooooooo.                                               ",
"                                             .oooooooooooooooooooooooooooooooooo.                                               ",
"                                              .oooooooooooooooooooooooooooooooo.                                                ",
"                                              .oooooooooooooooooooooooooooooooo.                                                ",
"                                               .oooooooooooooooooooooooooooooo.                                                 ",
"                                               .oooooooooooooooooooooooooooooo.                                                 ",
"                                                .oooooooooooooooooooooooooooo.                                                  ",
"                                                 .oooooooooooooooooooooooooo.                                                   ",
"                                                  .oooooooooooooooooooooooo.                                                    ",
"                                                   .oooooooooooooooooooooo.                                                     ",
"                                                    ..oooooooooooooooooooo.                                                     ",
"                                                      .oooooooooooooooooo.                                                      ",
"                                                     ..oooooooooooooooooo..                                                     ",
"                                                  ...oooooooooooooooooooooo.                                                    ",
"                                                 .oooooooooooooooooooooooooo.                                                   ",
"                                               ..oooooooooooooooooooooooooooo..                                                 ",
"                                             ..oooooooooooooooooooooooooooooooo..                                               ",
"                                            .oooooooooooooooooooooooooooooooooooo.                                              ",
"                                           .oooooooooooooooooooooooooooooooooooooo.                                             ",
"                                          .oooooooooooooooooooooooooooooooooooooooo.                                            ",
"                                         .oooooooooooooooooooooooooooooooooooooooooo.                                           ",
"                                        .oooooooooooooooooooooooooooooooooooooooooooo.                                          ",
"                                       .oooooooooooooooooooooooooooooooooooooooooooooo.                                         ",
"                                      .oooooooooooooooooooooooooooooooooooooooooooooooo.                                        ",
"                                     .oooooooooooooooooooooooooooooooooooooooooooooooooo.                                       ",
"                                    .oooooooooooooooooooooooooooooooooooooooooooooooooooo.                                      ",
"                                   .oooooooooooooooooooooooooooooooooooooooooooooooooooooo.                                     ",
"                                   .oooooooooooooooooooooooooooooooooooooooooooooooooooooo.                                     ",
"                                  .oooooooooooooooooooooooooooooooooooooooooooooooooooooooo.                                    ",
"                                  .oooooooooooooooooooooooooooooooooooooooooooooooooooooooo.                                    ",
"                                 .oooooooooooooooooooooooooooooooooooooooooooooooooooooooooo.                                   ",
"                                .oooooooooooooooooooooooooooooooooooooooooooooooooooooooooooo.                                  ",
"                                .oooooooooooooooooooooooooooooooooooooooooooooooooooooooooooo.                                  ",
"                               .oooooooooooooooooooooooooooooooooooooooooooooooooooooooooooooo.                                 ",
"                               .oooooooooooooooooooooooooooooooooooooooooooooooooooooooooooooo.                                 ",
"                               .oooooooooooooooooooooooooooooooooooooooooooooooooooooooooooooo.                                 ",
"                              .oooooooooooooooooooooooooooooooooooooooooooooooooooooooooooooooo.                                ",
"                              .oooooooooooooooooooooooooooooooooooooooooooooooooooooooooooooooo.                                ",
"                              .oooooooooooooooooooooooooooooooooooooooooooooooooooooooooooooooo.                                ",
"                             .oooooooooooooooooooooooooooooooooooooooooooooooooooooooooooooooooo.                               ",
"                             .oooooooooooooooooooooooooooooooooooooooooooooooooooooooooooooooooo.                               ",
"                             .oooooooooooooooooooooooooooooooooooooooooooooooooooooooooooooooooo.                               ",
"                             .oooooooooooooooooooooooooooooooooooooooooooooooooooooooooooooooooo.                               ",
"                             .oooooooooooooooooooooooooooooooooooooooooooooooooooooooooooooooooo.                               ",
"                            .oooooooooooooooooooooooooooooooooooooooooooooooooooooooooooooooooooo.                              ",
"                            .oooooooooooooooooooooooooooooooooooooooooooooooooooooooooooooooooooo.                              ",
"                            .oooooooooooooooooooooooooooooooooooooooooooooooooooooooooooooooooooo.                              ",
"                            .oooooooooooooooooooooooooooooooooooooooooooooooooooooooooooooooooooo.                              ",
"                            .oooooooooooooooooooooooooooooooooooooooooooooooooooooooooooooooooooo.                              ",
"                            .oooooooooooooooooooooooooooooooooooooooooooooooooooooooooooooooooooo.                              ",
"                            .oooooooooooooooooooooooooooooooooooooooooooooooooooooooooooooooooooo.                              ",
"                            .oooooooooooooooooooooooooooooooooooooooooooooooooooooooooooooooooooo.                              ",
"                            .oooooooooooooooooooooooooooooooooooooooooooooooooooooooooooooooooooo.                              ",
"                            .oooooooooooooooooooooooooooooooooooooooooooooooooooooooooooooooooooo.                              ",
"                            .oooooooooooooooooooooooooooooooooooooooooooooooooooooooooooooooooooo.                              ",
"                             .oooooooooooooooooooooooooooooooooooooooooooooooooooooooooooooooooo.                               ",
"                             .oooooooooooooooooooooooooooooooooooooooooooooooooooooooooooooooooo.                               ",
"                              .oooooooooooooooooooooooooooooooooooooooooooooooooooooooooooooooo.                                ",
"                               ................................................................                                 ",
"                                                                                                                                ",
"                                                                                                                                ",
"                                                                                                                                ",
"                                                                                                                                ",
"                                                                                                                                ",
"                                                                                                                                ",
"                                                                                                                                ",
"                                                                                                                                ",
"                                                                                                                                ",
"                                                                                                                                ",
"                                                                                                                                ",
"                                                                                                                                ",
"                                                                                                                                "
};
