/* XPM */
static char *result[] = {
/* columns rows colors chars-per-pixel */
"128 128 3 1 ",
"o c white",
"  c black",
". c white",
/* pixels */
"................................................................................................................................",
"................................................................................................................................",
"................................................................................................................................",
"................................................................................................................................",
"............................................................ooooooooo...........................................................",
"...........................................................o         o..........................................................",
".........................................................o            o.........................................................",
"........................................................o              o........................................................",
".......................................................o                o.......................................................",
"......................................................o                  o......................................................",
"......................................................o                  o......................................................",
".....................................................o                    o.....................................................",
".....................................................o                    o.....................................................",
".....................................................o                    o.....................................................",
".....................................................o                    o.....................................................",
".....................................................o                    o.....................................................",
".....................................................o                    o.....................................................",
".....................................................o                   o......................................................",
"......................................................o                  o......................................................",
"......................................................o                  o......................................................",
"......................................................o                 o.......................................................",
"......................................................o                 o.......................................................",
".......................................................o                o.......................................................",
".......................................................o               o........................................................",
".......................................................o               o........................................................",
"........................................................o              o........................................................",
"........................................................o             o.........................................................",
".............................oooooooooooooo..............o            o..............ooooooooooooooo............................",
"..........................ooo              ooo...........o            o..........oooo               ooo.........................",
"........................oo                    oo.........o           o..........o                      oo.......................",
".......................o                        oo........o          o........o                          oo.....................",
".....................oo                           o.......o          o......o                              o....................",
"....................o                              o......o         o......o                                o...................",
"...................o                                o......o        o....o                                   o..................",
"..................o                                  o.....o       o....o                                     o.................",
".................o                                    o.....o      o...o                                       o................",
"................o                                      o....o     o...o                                         o...............",
"................o                                       o....o    o..o                                          o...............",
"...............o                                         o...o    o..o                                           o..............",
"..............o                                           o..o   o..o                                            o..............",
"..............o                                           o...o  o..o                                             o.............",
".............o                                             o..o o..o                                              o.............",
".............o                                             o.......o                                              o.............",
".............o                                              o.....o                                                o............",
"............o                                                o....o                                                o............",
"............o                                                o...o                                                 o............",
"............o                                                 o.o                                                  o............",
"...........o                                                   o                                                    o...........",
"...........o                                                                                                        o...........",
"...........o                                                                                                        o...........",
"...........o                                                                                                        o...........",
"...........o                                                                                                        o...........",
"...........o                                                                                                        o...........",
"...........o                                                                                                        o...........",
"...........o                                                                                                        o...........",
"...........o                              oooo                                   oooo                               o...........",
"............o                             o...o                                 o...o                              o............",
"............o                            o....o                                 o....o                             o............",
"............o                            o....o                                o.....o                             o............",
"............o                            o.....o                               o.....o                            o.............",
".............o                            o....o                               o.....o                            o.............",
".............o                            o....o                              o.....o                            o..............",
"..............o                            o....o                             o....o                            o...............",
"...............o                            o...o                            o....o                            o................",
"...............o                            o....o                           o...o                            o.................",
"................o                            o...o                          o....o                            o.................",
".................o                            o...o                         o...o                            o..................",
"..................o                            o..o                         o..o                            o...................",
"...................o                           o...o                       o..o                            o....................",
".....................o                          o..o                       o..o                           o.....................",
"......................o                         o..o                       o..o                          o......................",
".......................o                        o..o                       o..o                         o.......................",
"........................o                       o..o                       o.o                         o........................",
".........................o                      o..o                       o.o                        o.........................",
"..........................o                      oo                        ooo                        o.........................",
"...........................o                                                                         o..........................",
"...........................o                                                                        o...........................",
"...........................o                                                                        o...........................",
"...........................o                                                                        o...........................",
"...........................o                                                                        o...........................",
"...........................o                                                                        o...........................",
"...........................o                                                                        o...........................",
"...........................o                                                                        o...........................",
"..........................o                                                                         o...........................",
"..........................o                                                                         o...........................",
"..........................o                                                                         o...........................",
"..........................o                                                                          o..........................",
"..........................o                                                                          o..........................",
"..........................o                                                                          o..........................",
"..........................o                                                                          o..........................",
"...........................o                                                                        o...........................",
"............................o             ooooooooooooooooooooooooooooooooooooooooooo               o...........................",
".............................o   oooooooo...........................................ooooooooo     o.............................",
"..............................ooo............................................................ooooo..............................",
"................................................................................................................................",
"................................................................................................................................",
"................................................................................................................................",
"................................................................................................................................",
"..........................................................ooooooooooooooooo.....................................................",
"................................................oooooooooo                 oooooooooooo.........................................",
".....................................ooooooooooo                                       oooooooo.................................",
"............................ooooooooo                                                          oooooo...........................",
"..........................oo                                                                         o..........................",
".........................o                                                                            o.........................",
"........................o                                                                              o........................",
".......................o                                                                                o.......................",
"......................o                                                                                 o.......................",
"......................o                                                                                  o......................",
"......................o                                                                                  o......................",
".....................o                                                                                   o......................",
".....................o                                                                                    o.....................",
".....................o                                                                                    o.....................",
"....................o                                                                                     o.....................",
"....................o                                                                                     o.....................",
"....................o                                                                                     o.....................",
"....................o                                                                                     o.....................",
"....................o                                                                                      o....................",
"....................o                                                                                      o....................",
"....................o                                                                                      o....................",
"....................o                                                                                      o....................",
"....................o                                                                                      o....................",
"....................o                                                                                     o.....................",
".....................ooooooooooooooooooooooooooooooooooooooooooooooooooooooooooooooooooooooooooooooooooooo......................",
"................................................................................................................................",
"................................................................................................................................",
"................................................................................................................................",
"................................................................................................................................",
"................................................................................................................................"
};
